# Made in Blockbench 5.1.3
mtllib press_body.mtl


o Cube_Cube.000
v 0.875 0 0
v 1 0 0
v 1 0 0.125
v 0.875 0 0.875
v 1 0 0.875
v 1 0 1
v 0 0 0.875
v 0.125 0 0.875
v 0.125 0 1
v 0 0 0
v 0.125 0 0
v 0.125 0 0.125
v 0.125 1 0.125
v 0.125 1 0.875
v 0.875 1 0.875
v 1 1 0.875
v 1 1 0.125
v 0.875 1 0.125
v 0.875 1 0
v 0.125 1 0
v 0 1 0.125
v 0.125 1 1
v 0.875 2 0.875
v 0.125 2 0.875
v 0.125 2 0.125
v 1 2 0.125
v 1 2 0.875
v 0.875 1 1
v 0.125 0.875 1
v 1 0.875 0.875
v 0.875 0.875 0
v 0 1 0.875
v 0 0.875 0.125
v 0.125 0.875 0.875
v 0.125 0 0.875
v 0.875 0 0.875
v 0.125 0.875 0.125
v 0.125 0 0.125
v 0.125 0.875 0
v 0.875 0 0.125
v 0 0 0.125
v 0.875 0.875 0.875
v 0.875 0.875 0.125
v 1 0.875 0.125
v 0 0.875 0.875
v 0.875 0.875 1
v 0.25 2.5 0.75
v 0.25 2.5 0.25
v 0 2.5 0.125
v 0.75 2.5 0.75
v 0.125 2.5 1
v 0.75 2.5 0.25
v 1 2.5 0.875
v 0.875 2.5 0
v 0.125 2 0
v 0.875 2 0
v 0.875 2 0.125
v 0 2 0.875
v 0.875 2 1
v 0.125 2 1
v 0 2.5 0.875
v 0 2.5 1
v 1 1 0
v 1 0.875 0
v 0.875 2.5 1
v 0.125 2.5 0
v 1 2.5 0.125
v 0.75 3 0.75
v 0.25 3 0.75
v 0.25 3 0.25
v 0.75 3 0.25
v 1 1 1
v 1 0.875 1
v 0 1 1
v 0 0.875 1
v 0 0.875 0
v 0 1 0
v 0 2 0.125
v 0.875 0 1
v 0 2 1
v 1 2 1
v 1 2.5 1
v 1 2 0
v 1 2.5 0
v 0 2.5 0
v 0 2 0
v 0.875 0 0.125
v 0 0 1
vt 0.173913 0.34782599999999997
vt 0.173913 0.30434800000000006
vt 0.217391 0.30434800000000006
vt 0.173913 0.34782599999999997
vt 0.173913 0.30434800000000006
vt 0.217391 0.30434800000000006
vt 0.173913 0.34782599999999997
vt 0.173913 0.30434800000000006
vt 0.217391 0.30434800000000006
vt 0.173913 0.34782599999999997
vt 0.173913 0.30434800000000006
vt 0.217391 0.30434800000000006
vt 0.956522 0.30434800000000006
vt 0.695652 0.30434800000000006
vt 0.695652 0.04347800000000002
vt 0.695652 0
vt 0.956522 0
vt 0.956522 0.04347800000000002
vt 1 0.04347800000000002
vt 1 0.30434800000000006
vt 0.956522 0.30434800000000006
vt 0.695652 0.30434800000000006
vt 0.956522 0.30434800000000006
vt 0.956522 0.34782599999999997
vt 0.695652 0.04347800000000002
vt 0.695652 0.30434800000000006
vt 0.652174 0.30434800000000006
vt 0.956522 0.391304
vt 0.956522 0.652174
vt 0.695652 0.652174
vt 0.695652 0.34782599999999997
vt 0.956522 0.34782599999999997
vt 0.956522 0.391304
vt 0.565217 0.34782599999999997
vt 0.304348 0.34782599999999997
vt 0.304348 0.30434800000000006
vt 0.565217 0.34782599999999997
vt 0.304348 0.34782599999999997
vt 0.304348 0.30434800000000006
vt 0.565217 0.34782599999999997
vt 0.304348 0.34782599999999997
vt 0.304348 0.30434800000000006
vt 0.565217 0.34782599999999997
vt 0.304348 0.34782599999999997
vt 0.304348 0.30434800000000006
vt 0.652174 0.34782599999999997
vt 0.608696 0.34782599999999997
vt 0.608696 0
vt 0.304348 0.30434800000000006
vt 0.304348 0
vt 0.565217 0
vt 0.304348 0.30434800000000006
vt 0.304348 0
vt 0.565217 0
vt 0.652174 0.34782599999999997
vt 0.608696 0.34782599999999997
vt 0.608696 0
vt 0.304348 0
vt 0.565217 0
vt 0.565217 0.30434800000000006
vt 0.26087 0.26086999999999994
vt 0 0.26086999999999994
vt 0 0
vt 0.608696 0
vt 0.652174 0
vt 0.652174 0.34782599999999997
vt 0 0.26086999999999994
vt 0.26087 0.26086999999999994
vt 0.26087 0.30434800000000006
vt 0 0.26086999999999994
vt 0.26087 0.26086999999999994
vt 0.26087 0.30434800000000006
vt 0 0.26086999999999994
vt 0.26087 0.26086999999999994
vt 0.26087 0.30434800000000006
vt 0 0.26086999999999994
vt 0.26087 0.26086999999999994
vt 0.26087 0.30434800000000006
vt 0.347826 0.782609
vt 0.521739 0.782609
vt 0.565217 0.869565
vt 0.347826 0.6086960000000001
vt 0.347826 0.782609
vt 0.26087 0.826087
vt 0.521739 0.6086960000000001
vt 0.347826 0.6086960000000001
vt 0.304348 0.521739
vt 0.521739 0.782609
vt 0.521739 0.6086960000000001
vt 0.608696 0.565217
vt 0.652174 0.34782599999999997
vt 0.608696 0.34782599999999997
vt 0.608696 0
vt 0.304348 0
vt 0.565217 0
vt 0.565217 0.30434800000000006
vt 0.652174 0.652174
vt 0.652174 0.391304
vt 0.695652 0.391304
vt 0.695652 0.652174
vt 0.956522 0.652174
vt 0.956522 0.695652
vt 1 0.391304
vt 1 0.652174
vt 0.956522 0.652174
vt 0.304348 0.869565
vt 0.26087 0.869565
vt 0.26087 0.826087
vt 0.304348 0.34782599999999997
vt 0.26087 0.34782599999999997
vt 0.26087 0.30434800000000006
vt 0.304348 0.521739
vt 0.347826 0.6086960000000001
vt 0.26087 0.565217
vt 0.565217 0.869565
vt 0.521739 0.782609
vt 0.608696 0.826087
vt 0.608696 0.565217
vt 0.521739 0.6086960000000001
vt 0.565217 0.521739
vt 0.173913 0.652174
vt 0.173913 0.826087
vt 0 0.826087
vt 0.173913 1
vt 0 1
vt 0 0.826087
vt 0.173913 0.652174
vt 0.173913 0.826087
vt 0 0.826087
vt 0.173913 0.652174
vt 0.173913 0.826087
vt 0 0.826087
vt 0.173913 0.652174
vt 0.173913 0.826087
vt 0 0.826087
vt 0.565217 0.34782599999999997
vt 0.565217 0.521739
vt 0.304348 0.521739
vt 0.304348 0.521739
vt 0.304348 0.34782599999999997
vt 0.565217 0.34782599999999997
vt 0.304348 0.521739
vt 0.304348 0.34782599999999997
vt 0.565217 0.34782599999999997
vt 0.304348 0.521739
vt 0.304348 0.34782599999999997
vt 0.565217 0.34782599999999997
vt 0.608696 0.30434800000000006
vt 0.608696 0.34782599999999997
vt 0.565217 0.34782599999999997
vt 0.304348 0.34782599999999997
vt 0.26087 0.34782599999999997
vt 0.26087 0.30434800000000006
vt 0.608696 0.30434800000000006
vt 0.608696 0.34782599999999997
vt 0.565217 0.34782599999999997
vt 0.304348 0.34782599999999997
vt 0.26087 0.34782599999999997
vt 0.26087 0.30434800000000006
vt 0.608696 0.30434800000000006
vt 0.608696 0.34782599999999997
vt 0.565217 0.34782599999999997
vt 0.608696 0.30434800000000006
vt 0.608696 0.34782599999999997
vt 0.565217 0.34782599999999997
vt 0.043478 0.652174
vt 0 0.652174
vt 0 0.30434800000000006
vt 0.173913 0.652174
vt 0.130435 0.652174
vt 0.130435 0.30434800000000006
vt 0.304348 0.34782599999999997
vt 0.26087 0.34782599999999997
vt 0.26087 0.30434800000000006
vt 0.043478 0.652174
vt 0 0.652174
vt 0 0.30434800000000006
vt 0.173913 0.30434800000000006
vt 0.173913 0.652174
vt 0.130435 0.652174
vt 0.043478 0.652174
vt 0 0.652174
vt 0 0.30434800000000006
vt 0.173913 0.30434800000000006
vt 0.173913 0.652174
vt 0.130435 0.652174
vt 0.173913 0.30434800000000006
vt 0.173913 0.652174
vt 0.130435 0.652174
vt 0.043478 0.30434800000000006
vt 0.043478 0.652174
vt 0 0.652174
vt 0.608696 0.30434800000000006
vt 0.565217 0.30434800000000006
vt 0.565217 0
vt 0.304348 0
vt 0.304348 0.30434800000000006
vt 0.26087 0.30434800000000006
vt 0.608696 0.30434800000000006
vt 0.565217 0.30434800000000006
vt 0.565217 0
vt 0.304348 0
vt 0.304348 0.30434800000000006
vt 0.26087 0.30434800000000006
vt 0.608696 0.30434800000000006
vt 0.565217 0.30434800000000006
vt 0.565217 0
vt 0.304348 0
vt 0.304348 0.30434800000000006
vt 0.26087 0.30434800000000006
vt 0.608696 0.30434800000000006
vt 0.565217 0.30434800000000006
vt 0.565217 0
vt 0.304348 0
vt 0.304348 0.30434800000000006
vt 0.26087 0.30434800000000006
vt 0.565217 0.521739
vt 0.565217 0.34782599999999997
vt 0.608696 0.34782599999999997
vt 0.304348 0.521739
vt 0.26087 0.521739
vt 0.26087 0.34782599999999997
vt 0.26087 0.34782599999999997
vt 0.304348 0.34782599999999997
vt 0.304348 0.521739
vt 0.608696 0.34782599999999997
vt 0.608696 0.521739
vt 0.565217 0.521739
vt 0.26087 0.34782599999999997
vt 0.304348 0.34782599999999997
vt 0.304348 0.521739
vt 0.608696 0.34782599999999997
vt 0.608696 0.521739
vt 0.565217 0.521739
vt 0.304348 0.34782599999999997
vt 0.304348 0.521739
vt 0.26087 0.521739
vt 0.565217 0.521739
vt 0.565217 0.34782599999999997
vt 0.608696 0.34782599999999997
vt 0.043478 0.30434800000000006
vt 0.086957 0.30434800000000006
vt 0.086957 0.652174
vt 0.086957 0.652174
vt 0.086957 0.30434800000000006
vt 0.130435 0.30434800000000006
vt 0.043478 0.30434800000000006
vt 0.086957 0.30434800000000006
vt 0.086957 0.652174
vt 0.086957 0.652174
vt 0.086957 0.30434800000000006
vt 0.130435 0.30434800000000006
vt 0.043478 0.30434800000000006
vt 0.086957 0.30434800000000006
vt 0.086957 0.652174
vt 0.086957 0.652174
vt 0.086957 0.30434800000000006
vt 0.130435 0.30434800000000006
vt 0.043478 0.30434800000000006
vt 0.086957 0.30434800000000006
vt 0.086957 0.652174
vt 0.086957 0.652174
vt 0.086957 0.30434800000000006
vt 0.130435 0.30434800000000006
vt 0.652174 0.34782599999999997
vt 0.608696 0.34782599999999997
vt 0.608696 0
vt 0.652174 0.34782599999999997
vt 0.608696 0.34782599999999997
vt 0.608696 0
vt 0.652174 0
vt 0.652174 0.34782599999999997
vt 0.608696 0.34782599999999997
vt 0.652174 0
vt 0.652174 0.34782599999999997
vt 0.608696 0.34782599999999997
vt 0.217391 0.34782599999999997
vt 0.173913 0.34782599999999997
vt 0.217391 0.30434800000000006
vt 0.217391 0.34782599999999997
vt 0.173913 0.34782599999999997
vt 0.217391 0.30434800000000006
vt 0.217391 0.34782599999999997
vt 0.173913 0.34782599999999997
vt 0.217391 0.30434800000000006
vt 0.217391 0.34782599999999997
vt 0.173913 0.34782599999999997
vt 0.217391 0.30434800000000006
vt 0.956522 0.04347800000000002
vt 0.956522 0.30434800000000006
vt 0.695652 0.04347800000000002
vt 0.695652 0.04347800000000002
vt 0.695652 0
vt 0.956522 0.04347800000000002
vt 0.956522 0.04347800000000002
vt 1 0.04347800000000002
vt 0.956522 0.30434800000000006
vt 0.695652 0.34782599999999997
vt 0.695652 0.30434800000000006
vt 0.956522 0.34782599999999997
vt 0.652174 0.04347800000000002
vt 0.695652 0.04347800000000002
vt 0.652174 0.30434800000000006
vt 0.695652 0.391304
vt 0.956522 0.391304
vt 0.695652 0.652174
vt 0.695652 0.391304
vt 0.695652 0.34782599999999997
vt 0.956522 0.391304
vt 0.565217 0.30434800000000006
vt 0.565217 0.34782599999999997
vt 0.304348 0.30434800000000006
vt 0.565217 0.30434800000000006
vt 0.565217 0.34782599999999997
vt 0.304348 0.30434800000000006
vt 0.565217 0.30434800000000006
vt 0.565217 0.34782599999999997
vt 0.304348 0.30434800000000006
vt 0.565217 0.30434800000000006
vt 0.565217 0.34782599999999997
vt 0.304348 0.30434800000000006
vt 0.652174 0
vt 0.652174 0.34782599999999997
vt 0.608696 0
vt 0.565217 0.30434800000000006
vt 0.304348 0.30434800000000006
vt 0.565217 0
vt 0.565217 0.30434800000000006
vt 0.304348 0.30434800000000006
vt 0.565217 0
vt 0.652174 0
vt 0.652174 0.34782599999999997
vt 0.608696 0
vt 0.304348 0.30434800000000006
vt 0.304348 0
vt 0.565217 0.30434800000000006
vt 0.26087 0
vt 0.26087 0.26086999999999994
vt 0 0
vt 0.608696 0.34782599999999997
vt 0.608696 0
vt 0.652174 0.34782599999999997
vt 0 0.30434800000000006
vt 0 0.26086999999999994
vt 0.26087 0.30434800000000006
vt 0 0.30434800000000006
vt 0 0.26086999999999994
vt 0.26087 0.30434800000000006
vt 0 0.30434800000000006
vt 0 0.26086999999999994
vt 0.26087 0.30434800000000006
vt 0 0.30434800000000006
vt 0 0.26086999999999994
vt 0.26087 0.30434800000000006
vt 0.304348 0.869565
vt 0.347826 0.782609
vt 0.565217 0.869565
vt 0.26087 0.565217
vt 0.347826 0.6086960000000001
vt 0.26087 0.826087
vt 0.565217 0.521739
vt 0.521739 0.6086960000000001
vt 0.304348 0.521739
vt 0.608696 0.826087
vt 0.521739 0.782609
vt 0.608696 0.565217
vt 0.652174 0
vt 0.652174 0.34782599999999997
vt 0.608696 0
vt 0.304348 0.30434800000000006
vt 0.304348 0
vt 0.565217 0.30434800000000006
vt 0.695652 0.652174
vt 0.652174 0.652174
vt 0.695652 0.391304
vt 0.695652 0.695652
vt 0.695652 0.652174
vt 0.956522 0.695652
vt 0.956522 0.391304
vt 1 0.391304
vt 0.956522 0.652174
vt 0.347826 0.782609
vt 0.304348 0.869565
vt 0.26087 0.826087
vt 0.304348 0.30434800000000006
vt 0.304348 0.34782599999999997
vt 0.26087 0.30434800000000006
vt 0.26087 0.521739
vt 0.304348 0.521739
vt 0.26087 0.565217
vt 0.608696 0.869565
vt 0.565217 0.869565
vt 0.608696 0.826087
vt 0.608696 0.521739
vt 0.608696 0.565217
vt 0.565217 0.521739
vt 0 0.652174
vt 0.173913 0.652174
vt 0 0.826087
vt 0.173913 0.826087
vt 0.173913 1
vt 0 0.826087
vt 0 0.652174
vt 0.173913 0.652174
vt 0 0.826087
vt 0 0.652174
vt 0.173913 0.652174
vt 0 0.826087
vt 0 0.652174
vt 0.173913 0.652174
vt 0 0.826087
vt 0.304348 0.34782599999999997
vt 0.565217 0.34782599999999997
vt 0.304348 0.521739
vt 0.565217 0.521739
vt 0.304348 0.521739
vt 0.565217 0.34782599999999997
vt 0.565217 0.521739
vt 0.304348 0.521739
vt 0.565217 0.34782599999999997
vt 0.565217 0.521739
vt 0.304348 0.521739
vt 0.565217 0.34782599999999997
vt 0.565217 0.30434800000000006
vt 0.608696 0.30434800000000006
vt 0.565217 0.34782599999999997
vt 0.304348 0.30434800000000006
vt 0.304348 0.34782599999999997
vt 0.26087 0.30434800000000006
vt 0.565217 0.30434800000000006
vt 0.608696 0.30434800000000006
vt 0.565217 0.34782599999999997
vt 0.304348 0.30434800000000006
vt 0.304348 0.34782599999999997
vt 0.26087 0.30434800000000006
vt 0.565217 0.30434800000000006
vt 0.608696 0.30434800000000006
vt 0.565217 0.34782599999999997
vt 0.565217 0.30434800000000006
vt 0.608696 0.30434800000000006
vt 0.565217 0.34782599999999997
vt 0.043478 0.30434800000000006
vt 0.043478 0.652174
vt 0 0.30434800000000006
vt 0.173913 0.30434800000000006
vt 0.173913 0.652174
vt 0.130435 0.30434800000000006
vt 0.304348 0.30434800000000006
vt 0.304348 0.34782599999999997
vt 0.26087 0.30434800000000006
vt 0.043478 0.30434800000000006
vt 0.043478 0.652174
vt 0 0.30434800000000006
vt 0.130435 0.30434800000000006
vt 0.173913 0.30434800000000006
vt 0.130435 0.652174
vt 0.043478 0.30434800000000006
vt 0.043478 0.652174
vt 0 0.30434800000000006
vt 0.130435 0.30434800000000006
vt 0.173913 0.30434800000000006
vt 0.130435 0.652174
vt 0.130435 0.30434800000000006
vt 0.173913 0.30434800000000006
vt 0.130435 0.652174
vt 0 0.30434800000000006
vt 0.043478 0.30434800000000006
vt 0 0.652174
vt 0.608696 0
vt 0.608696 0.30434800000000006
vt 0.565217 0
vt 0.26087 0
vt 0.304348 0
vt 0.26087 0.30434800000000006
vt 0.608696 0
vt 0.608696 0.30434800000000006
vt 0.565217 0
vt 0.26087 0
vt 0.304348 0
vt 0.26087 0.30434800000000006
vt 0.608696 0
vt 0.608696 0.30434800000000006
vt 0.565217 0
vt 0.26087 0
vt 0.304348 0
vt 0.26087 0.30434800000000006
vt 0.608696 0
vt 0.608696 0.30434800000000006
vt 0.565217 0
vt 0.26087 0
vt 0.304348 0
vt 0.26087 0.30434800000000006
vt 0.608696 0.521739
vt 0.565217 0.521739
vt 0.608696 0.34782599999999997
vt 0.304348 0.34782599999999997
vt 0.304348 0.521739
vt 0.26087 0.34782599999999997
vt 0.26087 0.521739
vt 0.26087 0.34782599999999997
vt 0.304348 0.521739
vt 0.565217 0.34782599999999997
vt 0.608696 0.34782599999999997
vt 0.565217 0.521739
vt 0.26087 0.521739
vt 0.26087 0.34782599999999997
vt 0.304348 0.521739
vt 0.565217 0.34782599999999997
vt 0.608696 0.34782599999999997
vt 0.565217 0.521739
vt 0.26087 0.34782599999999997
vt 0.304348 0.34782599999999997
vt 0.26087 0.521739
vt 0.608696 0.521739
vt 0.565217 0.521739
vt 0.608696 0.34782599999999997
vt 0.043478 0.652174
vt 0.043478 0.30434800000000006
vt 0.086957 0.652174
vt 0.130435 0.652174
vt 0.086957 0.652174
vt 0.130435 0.30434800000000006
vt 0.043478 0.652174
vt 0.043478 0.30434800000000006
vt 0.086957 0.652174
vt 0.130435 0.652174
vt 0.086957 0.652174
vt 0.130435 0.30434800000000006
vt 0.043478 0.652174
vt 0.043478 0.30434800000000006
vt 0.086957 0.652174
vt 0.130435 0.652174
vt 0.086957 0.652174
vt 0.130435 0.30434800000000006
vt 0.043478 0.652174
vt 0.043478 0.30434800000000006
vt 0.086957 0.652174
vt 0.130435 0.652174
vt 0.086957 0.652174
vt 0.130435 0.30434800000000006
vt 0.652174 0
vt 0.652174 0.34782599999999997
vt 0.608696 0
vt 0.652174 0
vt 0.652174 0.34782599999999997
vt 0.608696 0
vt 0.608696 0
vt 0.652174 0
vt 0.608696 0.34782599999999997
vt 0.608696 0
vt 0.652174 0
vt 0.608696 0.34782599999999997
vn 0 -1 0
vn 0 -1 0
vn 0 -1 0
vn 0 -1 0
vn 0 1 0
vn 0 1 0
vn 0 1 0
vn 0 1 0
vn 0 1 0
vn 0 -1 0
vn 0 -1 0
vn 0 0 1
vn 1 0 0
vn 0 0 -1
vn -1 0 0
vn 1 0 0
vn 0 0 1
vn -1 0 0
vn 1 0 0
vn 0 0 -1
vn 0 -1 0
vn 0 0 1
vn 0 -1 0
vn 0 -1 0
vn 0 -1 0
vn 0 -1 0
vn 0 1 0
vn 0 1 0
vn 0 1 0
vn 0 1 0
vn 0 0 -1
vn 1 0 0
vn 0 -1 0
vn 0 -1 0
vn 0 -1 0
vn 0 1 0
vn 0 0 -1
vn 0 1 0
vn 0 1 0
vn 0 1 0
vn 0 0 1
vn 0 1 0
vn -1 0 0
vn 1 0 0
vn 0 0 -1
vn -1 0 0
vn 0 0 1
vn 1 0 0
vn 0 0 -1
vn 1 0 0
vn 1 0 0
vn 0 0 1
vn 0 0 1
vn -1 0 0
vn 0 0 -1
vn 1 0 0
vn 0 0 1
vn -1 0 0
vn -1 0 0
vn 0 0 -1
vn 0 0 1
vn -1 0 0
vn 1 0 0
vn 0 0 -1
vn 0 0 1
vn 1 0 0
vn 1 0 0
vn 0 0 -1
vn 0 0 -1
vn -1 0 0
vn -1 0 0
vn 0 0 1
vn -1 0 0
vn 0 0 1
vn 1 0 0
vn 0 0 1
vn 0 0 -1
vn 1 0 0
vn -1 0 0
vn 0 0 -1
vn 0 0 -1
vn -1 0 0
vn -1 0 0
vn 0 0 1
vn 0 0 1
vn 1 0 0
vn 1 0 0
vn 0 0 -1
vn 0 0 -1
vn -1 0 0
vn -1 0 0
vn 0 0 1
vn 0 -1 0
vn 0 -1 0
vn 0 -1 0
vn 0 -1 0
vn 0 1 0
vn 0 1 0
vn 0 1 0
vn 0 1 0
vn 0 1 0
vn 0 -1 0
vn 0 -1 0
vn 0 0 1
vn 1 0 0
vn 0 0 -1
vn -1 0 0
vn 1 0 0
vn 0 0 1
vn -1 0 0
vn 1 0 0
vn 0 0 -1
vn 0 -1 0
vn 0 0 1
vn 0 -1 0
vn 0 -1 0
vn 0 -1 0
vn 0 -1 0
vn 0 1 0
vn 0 1 0
vn 0 1 0
vn 0 1 0
vn 0 0 -1
vn 1 0 0
vn 0 -1 0
vn 0 -1 0
vn 0 -1 0
vn 0 1 0
vn 0 0 -1
vn 0 1 0
vn 0 1 0
vn 0 1 0
vn 0 0 1
vn 0 1 0
vn -1 0 0
vn 1 0 0
vn 0 0 -1
vn -1 0 0
vn 0 0 1
vn 1 0 0
vn 0 0 -1
vn 1 0 0
vn 1 0 0
vn 0 0 1
vn 0 0 1
vn -1 0 0
vn 0 0 -1
vn 1 0 0
vn 0 0 1
vn -1 0 0
vn -1 0 0
vn 0 0 -1
vn 0 0 1
vn -1 0 0
vn 1 0 0
vn 0 0 -1
vn 0 0 1
vn 1 0 0
vn 1 0 0
vn 0 0 -1
vn 0 0 -1
vn -1 0 0
vn -1 0 0
vn 0 0 1
vn -1 0 0
vn 0 0 1
vn 1 0 0
vn 0 0 1
vn 0 0 -1
vn 1 0 0
vn -1 0 0
vn 0 0 -1
vn 0 0 -1
vn -1 0 0
vn -1 0 0
vn 0 0 1
vn 0 0 1
vn 1 0 0
vn 1 0 0
vn 0 0 -1
vn 0 0 -1
vn -1 0 0
vn -1 0 0
vn 0 0 1
usemtl default
f 1/1/1 2/2/1 3/3/1
f 4/4/2 5/5/2 6/6/2
f 7/7/3 8/8/3 9/9/3
f 10/10/4 11/11/4 12/12/4
f 13/13/5 14/14/5 15/15/5
f 16/16/6 17/17/6 18/18/6
f 19/19/7 20/20/7 13/21/7
f 14/22/8 13/23/8 21/24/8
f 15/25/9 14/26/9 22/27/9
f 23/28/10 24/29/10 25/30/10
f 26/31/11 27/32/11 23/33/11
f 28/34/12 22/35/12 29/36/12
f 17/37/13 16/38/13 30/39/13
f 20/40/14 19/41/14 31/42/14
f 32/43/15 21/44/15 33/45/15
f 34/46/16 29/47/16 9/48/16
f 34/49/17 35/50/17 36/51/17
f 37/52/18 38/53/18 35/54/18
f 39/55/19 37/56/19 12/57/19
f 40/58/20 38/59/20 37/60/20
f 35/61/21 38/62/21 40/63/21
f 41/64/22 12/65/22 37/66/22
f 42/67/23 43/68/23 44/69/23
f 43/70/24 37/71/24 39/72/24
f 37/73/25 34/74/25 45/75/25
f 34/76/26 42/77/26 46/78/26
f 47/79/27 48/80/27 49/81/27
f 50/82/28 47/83/28 51/84/28
f 52/85/29 50/86/29 53/87/29
f 48/88/30 52/89/30 54/90/30
f 45/91/31 34/92/31 8/93/31
f 36/94/32 40/95/32 43/96/32
f 55/97/33 56/98/33 57/99/33
f 25/100/34 24/101/34 58/102/34
f 59/103/35 60/104/35 24/105/35
f 61/106/36 62/107/36 51/108/36
f 19/109/37 63/110/37 64/111/37
f 53/112/38 50/113/38 65/114/38
f 49/115/39 48/116/39 66/117/39
f 54/118/40 52/119/40 67/120/40
f 50/121/41 68/122/41 69/123/41
f 70/124/42 69/125/42 68/126/42
f 47/127/43 69/128/43 70/129/43
f 52/130/44 71/131/44 68/132/44
f 48/133/45 70/134/45 71/135/45
f 58/136/46 61/137/46 49/138/46
f 51/139/47 60/140/47 59/141/47
f 53/142/48 27/143/48 26/144/48
f 54/145/49 56/146/49 55/147/49
f 64/148/50 63/149/50 17/150/50
f 16/151/51 72/152/51 73/153/51
f 73/154/52 72/155/52 28/156/52
f 22/157/53 74/158/53 75/159/53
f 75/160/54 74/161/54 32/162/54
f 76/163/55 77/164/55 20/165/55
f 55/166/56 25/167/56 13/168/56
f 25/169/57 78/170/57 21/171/57
f 21/172/58 77/173/58 76/174/58
f 59/175/59 23/176/59 15/177/59
f 15/178/60 23/179/60 27/180/60
f 26/181/61 57/182/61 18/183/61
f 18/184/62 57/185/62 56/186/62
f 14/187/63 24/188/63 60/189/63
f 32/190/64 58/191/64 24/192/64
f 73/193/65 46/194/65 79/195/65
f 5/196/66 30/197/66 73/198/66
f 64/199/67 44/200/67 3/201/67
f 1/202/68 31/203/68 64/204/68
f 76/205/69 39/206/69 11/207/69
f 41/208/70 33/209/70 76/210/70
f 75/211/71 45/212/71 7/213/71
f 9/214/72 29/215/72 75/216/72
f 61/217/73 58/218/73 80/219/73
f 51/220/74 62/221/74 80/222/74
f 81/223/75 27/224/75 53/225/75
f 81/226/76 82/227/76 65/228/76
f 83/229/77 56/230/77 54/231/77
f 83/232/78 84/233/78 67/234/78
f 78/235/79 49/236/79 85/237/79
f 66/238/80 55/239/80 86/240/80
f 20/241/81 77/242/81 86/243/81
f 86/244/82 77/245/82 21/246/82
f 32/247/83 74/248/83 80/249/83
f 80/250/84 74/251/84 22/252/84
f 28/253/85 72/254/85 81/255/85
f 81/256/86 72/257/86 16/258/86
f 17/259/87 63/260/87 83/261/87
f 83/262/88 63/263/88 19/264/88
f 42/265/89 30/266/89 5/267/89
f 46/268/90 42/269/90 4/270/90
f 87/271/91 43/272/91 31/273/91
f 3/274/92 44/275/92 43/276/92
f 87/277/93 1/278/93 3/279/93
f 79/280/94 4/281/94 6/282/94
f 88/283/95 7/284/95 9/285/95
f 41/286/96 10/287/96 12/288/96
f 18/289/97 13/290/97 15/291/97
f 15/292/98 16/293/98 18/294/98
f 18/295/99 19/296/99 13/297/99
f 32/298/100 14/299/100 21/300/100
f 28/301/101 15/302/101 22/303/101
f 57/304/102 23/305/102 25/306/102
f 57/307/103 26/308/103 23/309/103
f 46/310/104 28/311/104 29/312/104
f 44/313/105 17/314/105 30/315/105
f 39/316/106 20/317/106 31/318/106
f 45/319/107 32/320/107 33/321/107
f 8/322/108 34/323/108 9/324/108
f 42/325/109 34/326/109 36/327/109
f 34/328/110 37/329/110 35/330/110
f 11/331/111 39/332/111 12/333/111
f 43/334/112 40/335/112 37/336/112
f 36/337/113 35/338/113 40/339/113
f 33/340/114 41/341/114 37/342/114
f 30/343/115 42/344/115 44/345/115
f 31/346/116 43/347/116 39/348/116
f 33/349/117 37/350/117 45/351/117
f 29/352/118 34/353/118 46/354/118
f 61/355/119 47/356/119 49/357/119
f 65/358/120 50/359/120 51/360/120
f 67/361/121 52/362/121 53/363/121
f 66/364/122 48/365/122 54/366/122
f 7/367/123 45/368/123 8/369/123
f 42/370/124 36/371/124 43/372/124
f 25/373/125 55/374/125 57/375/125
f 78/376/126 25/377/126 58/378/126
f 23/379/127 59/380/127 24/381/127
f 47/382/128 61/383/128 51/384/128
f 31/385/129 19/386/129 64/387/129
f 82/388/130 53/389/130 65/390/130
f 85/391/131 49/392/131 66/393/131
f 84/394/132 54/395/132 67/396/132
f 47/397/133 50/398/133 69/399/133
f 71/400/134 70/401/134 68/402/134
f 48/403/135 47/404/135 70/405/135
f 50/406/136 52/407/136 68/408/136
f 52/409/137 48/410/137 71/411/137
f 78/412/138 58/413/138 49/414/138
f 65/415/139 51/416/139 59/417/139
f 67/418/140 53/419/140 26/420/140
f 66/421/141 54/422/141 55/423/141
f 44/424/142 64/425/142 17/426/142
f 30/427/143 16/428/143 73/429/143
f 46/430/144 73/431/144 28/432/144
f 29/433/145 22/434/145 75/435/145
f 45/436/146 75/437/146 32/438/146
f 39/439/147 76/440/147 20/441/147
f 20/442/148 55/443/148 13/444/148
f 13/445/149 25/446/149 21/447/149
f 33/448/150 21/449/150 76/450/150
f 28/451/151 59/452/151 15/453/151
f 16/454/152 15/455/152 27/456/152
f 17/457/153 26/458/153 18/459/153
f 19/460/154 18/461/154 56/462/154
f 22/463/155 14/464/155 60/465/155
f 14/466/156 32/467/156 24/468/156
f 6/469/157 73/470/157 79/471/157
f 6/472/158 5/473/158 73/474/158
f 2/475/159 64/476/159 3/477/159
f 2/478/160 1/479/160 64/480/160
f 10/481/161 76/482/161 11/483/161
f 10/484/162 41/485/162 76/486/162
f 88/487/163 75/488/163 7/489/163
f 88/490/164 9/491/164 75/492/164
f 62/493/165 61/494/165 80/495/165
f 60/496/166 51/497/166 80/498/166
f 82/499/167 81/500/167 53/501/167
f 59/502/168 81/503/168 65/504/168
f 84/505/169 83/506/169 54/507/169
f 26/508/170 83/509/170 67/510/170
f 86/511/171 78/512/171 85/513/171
f 85/514/172 66/515/172 86/516/172
f 55/517/173 20/518/173 86/519/173
f 78/520/174 86/521/174 21/522/174
f 58/523/175 32/524/175 80/525/175
f 60/526/176 80/527/176 22/528/176
f 59/529/177 28/530/177 81/531/177
f 27/532/178 81/533/178 16/534/178
f 26/535/179 17/536/179 83/537/179
f 56/538/180 83/539/180 19/540/180
f 4/541/181 42/542/181 5/543/181
f 79/544/182 46/545/182 4/546/182
f 1/547/183 87/548/183 31/549/183
f 87/550/184 3/551/184 43/552/184